<svg xmlns="http://www.w3.org/2000/svg" viewBox="0 0 101.02 102.04"><defs><style>.cls-1{fill:#fff;}.cls-2{fill:#231f20;}</style></defs><title>Asset 2</title><g id="Layer_2" data-name="Layer 2"><g id="Layer_1-2" data-name="Layer 1"><path class="cls-1" d="M12.2,14.8a23,23,0,0,0-.53-5.56A6.32,6.32,0,0,0,9.89,6.1,6.84,6.84,0,0,0,6.63,4.56a41.61,41.61,0,0,0-5.09-.65A1.3,1.3,0,0,1,.41,3.26,2.57,2.57,0,0,1,0,1.89,2.28,2.28,0,0,1,.41.59,1.33,1.33,0,0,1,1.54,0h3.2c1.5,0,3.15,0,5,.06l5.63.12c1.93,0,3.69.12,5.27.23a37.37,37.37,0,0,1,4,.48c1.07.2,1.68.45,1.84.77l24,56.49c.16.23.31.35.47.35a.72.72,0,0,0,.6-.35L75.2,1.66c.08-.32,1.09-.57,3-.77S82.4.53,85,.41,90.14.2,92.79.12,97.54,0,99.12,0a1,1,0,0,1,1,.59,2.86,2.86,0,0,1,.3,1.3,2.48,2.48,0,0,1-.36,1.31,1.43,1.43,0,0,1-.95.71c-2.68.47-4.77.91-6.27,1.3A5.52,5.52,0,0,0,89.53,7.4a9.93,9.93,0,0,0-1.3,4.68Q88,15.16,88,20.84v43.7a30.88,30.88,0,0,0,.47,6.1A6.43,6.43,0,0,0,90.18,74a7.37,7.37,0,0,0,3.5,1.71,43.35,43.35,0,0,0,5.8.89,1.61,1.61,0,0,1,1.12.77,2.49,2.49,0,0,1,.42,1.36,2.22,2.22,0,0,1-.42,1.31,1.42,1.42,0,0,1-1.24.59,84.67,84.67,0,0,1-9.06-.47,77.69,77.69,0,0,0-8.59-.48c-3,0-6.09.16-9.29.48s-6.1.47-8.71.47a1.16,1.16,0,0,1-1.06-.59,2.48,2.48,0,0,1-.36-1.31,2.8,2.8,0,0,1,.36-1.36,1.43,1.43,0,0,1,1.06-.77,42.1,42.1,0,0,0,5.87-.89A7.35,7.35,0,0,0,73,74a6.11,6.11,0,0,0,1.66-3.38,35.33,35.33,0,0,0,.41-6.1V20.61c0-.56-.31-.81-.94-.77a1.17,1.17,0,0,0-1.19.77L55.9,60.75q-1.78,4.16-3.5,9.06T49,79.7a.9.9,0,0,1-.65.53,3.52,3.52,0,0,1-1.13.18,3.46,3.46,0,0,1-1.12-.18.87.87,0,0,1-.65-.53L19.42,20a1.18,1.18,0,0,0-1-.71c-.52-.07-.77.2-.77.83V64.19a23.91,23.91,0,0,0,.71,6.63,7.33,7.33,0,0,0,2.07,3.55A7.21,7.21,0,0,0,23.8,76c1.35.28,2.92.53,4.74.77a1.25,1.25,0,0,1,.89.71,3,3,0,0,1,0,2.61,1,1,0,0,1-1,.59,39.5,39.5,0,0,1-5.74-.47,49.63,49.63,0,0,0-7.4-.48,59.39,59.39,0,0,0-8,.48,45.86,45.86,0,0,1-5.86.47,1.09,1.09,0,0,1-.95-.59,3.1,3.1,0,0,1-.41-1.31,2.11,2.11,0,0,1,.3-1.3,1.46,1.46,0,0,1,1.06-.71c2.05-.24,3.77-.49,5.15-.77a6.52,6.52,0,0,0,3.32-1.6,6.88,6.88,0,0,0,1.78-3.55,32.28,32.28,0,0,0,.53-6.63Z"/><path class="cls-2" d="M49.26,27.84a14.77,14.77,0,0,0-4,1.35,14.44,14.44,0,0,0-3.46,2.44,9.13,9.13,0,0,1,1.64,2.1,13.54,13.54,0,0,1,1.09,2.46,15.58,15.58,0,0,1,.61,2.62,19.81,19.81,0,0,1,.19,2.61,15.48,15.48,0,0,1-1.64,7,18.66,18.66,0,0,1-4.31,5.63,20.82,20.82,0,0,1-6,3.74,18,18,0,0,1-6.81,1.37c-.87,0-1.64,0-2.31-.07S22.93,59,22.38,59s-1.05-.16-1.51-.26l-1.41-.31c-.39.05-.76.12-1.11.19l-1.05.19c-.35,0-.75.09-1.18.12s-.93,0-1.49,0a5.28,5.28,0,0,1-1.56-.18.71.71,0,0,1-.54-.7.68.68,0,0,1,.44-.69,2.87,2.87,0,0,1,1.15-.19,8,8,0,0,1,1,.06c.32,0,.69.11,1.09.19l1.37.27c.5.1,1.12.21,1.85.32a8.87,8.87,0,0,0,3.93-2.23,25.76,25.76,0,0,0,3.4-4q1.62-2.31,3.18-5.09t3.21-5.52c1.11-1.84,2.28-3.6,3.53-5.28a25.22,25.22,0,0,1,4.1-4.37,10.65,10.65,0,0,0-3.93-2.08,15,15,0,0,0-4-.61,19.44,19.44,0,0,0-12.34,4.46,16.57,16.57,0,0,0-4,5A13.06,13.06,0,0,0,15,44.49,12.23,12.23,0,0,0,15.26,47a5.84,5.84,0,0,0,.88,2.12,4.41,4.41,0,0,0,1.64,1.45,5.41,5.41,0,0,0,2.52.53,6.79,6.79,0,0,0,3.47-.91,8.53,8.53,0,0,0,2.69-2.43,12.29,12.29,0,0,0,1.74-3.58A14.31,14.31,0,0,0,28.83,40V38.52h.51v1.22a15.4,15.4,0,0,1-.72,4.81,11.78,11.78,0,0,1-2,3.82,9.63,9.63,0,0,1-3.07,2.53,8.41,8.41,0,0,1-3.87.9,6,6,0,0,1-2.79-.61,5.83,5.83,0,0,1-2-1.62,7.11,7.11,0,0,1-1.18-2.35,10.11,10.11,0,0,1-.39-2.82A11.53,11.53,0,0,1,14.82,39a19.11,19.11,0,0,1,4.09-5.19,22.26,22.26,0,0,1,6.16-3.91,19.21,19.21,0,0,1,7.67-1.53,13.77,13.77,0,0,1,8.49,2.81A24.09,24.09,0,0,1,45,28.83a13.9,13.9,0,0,1,4.2-1.32Zm-18.07,30a16.55,16.55,0,0,0,4.39-2.37A16.31,16.31,0,0,0,39,51.93a23.93,23.93,0,0,0,2.4-4.27A24.5,24.5,0,0,0,42.81,43a23.3,23.3,0,0,0,.48-4.61,12.79,12.79,0,0,0-.46-3.38,6.75,6.75,0,0,0-1.51-2.84,28.32,28.32,0,0,0-3.18,4.38q-1.44,2.43-2.88,5T32.32,46.8A42.51,42.51,0,0,1,29,51.59a24.21,24.21,0,0,1-3.93,4,15.18,15.18,0,0,1-4.93,2.63v.08a20.86,20.86,0,0,0,2.62.34c.88,0,1.89.08,3,.08A15.69,15.69,0,0,0,31.19,57.81Z"/><path class="cls-2" d="M64.26,47.64A27.29,27.29,0,0,1,62.69,50a26.77,26.77,0,0,1-2.15,2.5A34.51,34.51,0,0,1,58,54.85a24.08,24.08,0,0,1-2.84,2.06,16.37,16.37,0,0,1-3,1.43,9,9,0,0,1-2.92.52,3.84,3.84,0,0,1-2.73-.9,3.37,3.37,0,0,1-1-2.59,8.17,8.17,0,0,1,1.11-3.89,17.17,17.17,0,0,1,6.62-6.62,8.28,8.28,0,0,1,4-1.13,2.71,2.71,0,0,1,1.64.44,1.52,1.52,0,0,1,.59,1.28,2.63,2.63,0,0,1-1.09,2,12.67,12.67,0,0,1-2.67,1.72,28.06,28.06,0,0,1-3.38,1.39,29,29,0,0,1-3.2.9,8.47,8.47,0,0,0-.75,1.89,7.61,7.61,0,0,0-.3,2.1,4.62,4.62,0,0,0,.11,1,3.08,3.08,0,0,0,.33.88,2,2,0,0,0,.63.66,1.91,1.91,0,0,0,1,.25,7.63,7.63,0,0,0,3.26-.91,21.15,21.15,0,0,0,3.8-2.41,30.53,30.53,0,0,0,3.7-3.45,26.26,26.26,0,0,0,3-4Zm-7.12-3.11a1.09,1.09,0,0,0-.78-.3,3.49,3.49,0,0,0-1.91.7,13.12,13.12,0,0,0-2,1.72,17.6,17.6,0,0,0-1.83,2.21A13.84,13.84,0,0,0,49.34,51a15.72,15.72,0,0,0,2.31-.65,16,16,0,0,0,2.67-1.2,9.69,9.69,0,0,0,2.21-1.66,2.9,2.9,0,0,0,.92-2A1.15,1.15,0,0,0,57.14,44.53Z"/><path class="cls-2" d="M78,29.27Q74.22,35,71.45,39.09L66.7,46.17q-2,2.94-3.24,4.85c-.84,1.28-1.5,2.32-2,3.13a13.74,13.74,0,0,0-1,1.94,3.52,3.52,0,0,0-.27,1.22c0,.7.31,1,.92,1a4.88,4.88,0,0,0,2.46-.87,19.24,19.24,0,0,0,3-2.35,40.43,40.43,0,0,0,3.3-3.49q1.68-2,3.27-4.26l.47.16q-1.52,2.14-3.2,4.14a41.68,41.68,0,0,1-3.23,3.47A21.72,21.72,0,0,1,63.69,58a5.37,5.37,0,0,1-2.71.88,2.52,2.52,0,0,1-1.87-.59,2.17,2.17,0,0,1-.56-1.55,5.76,5.76,0,0,1,.31-1.83,13.36,13.36,0,0,1,1.07-2.27c.51-.88,1.17-1.95,2-3.22L65,44.76c1.22-1.83,2.65-4,4.31-6.56s3.55-5.51,5.71-8.93Z"/><path class="cls-2" d="M87.29,29.27Q83.56,35,80.78,39.09L76,46.17Q74,49.11,72.79,51c-.84,1.28-1.5,2.32-2,3.13a13.74,13.74,0,0,0-1,1.94,3.52,3.52,0,0,0-.27,1.22c0,.7.3,1,.92,1a4.88,4.88,0,0,0,2.46-.87,19.24,19.24,0,0,0,3-2.35,40.43,40.43,0,0,0,3.3-3.49q1.68-2,3.27-4.26l.47.16q-1.52,2.14-3.2,4.14a41.68,41.68,0,0,1-3.23,3.47A21.72,21.72,0,0,1,73,58a5.37,5.37,0,0,1-2.71.88,2.52,2.52,0,0,1-1.87-.59,2.13,2.13,0,0,1-.56-1.55,5.76,5.76,0,0,1,.31-1.83,13.36,13.36,0,0,1,1.07-2.27c.51-.88,1.17-1.95,2-3.22s1.85-2.8,3.07-4.64,2.65-4,4.3-6.56,3.56-5.51,5.72-8.93Z"/><path class="cls-2" d="M3.82,95.19c0-1.33,0-2.6-.08-3.63,0-.23,0-.42,0-.58H2a13.2,13.2,0,0,0-1.87.14s0-.35,0-.64.06-.69.36-.69c0,0,5.4.08,7,.08a11.4,11.4,0,0,0,1.75-.16,6.18,6.18,0,0,1,.06.8c0,.35-.13.53-.3.53l-3.3,0c0,1.3-.06,2.5-.06,3.76a50,50,0,0,0,.27,6.34,6.72,6.72,0,0,1-1.07.17c-.57,0-1.05-.23-1.05-1.1Z"/><path class="cls-2" d="M13.11,96.14V96c0-1.34-.31-2.1-1.55-2.1a3.55,3.55,0,0,0-2.21,1l-.07-.06a3.19,3.19,0,0,1,3-2c2.28,0,2.58,1.37,2.58,2.83,0,.85-.05,1.93-.05,2.81v.19c0,.63,0,1.79.81,1.79a1.13,1.13,0,0,0,.61-.23l.06,0a1.84,1.84,0,0,1-1.78,1c-.66,0-1.35-.28-1.37-1.13l-.06,0a2.5,2.5,0,0,1-2.19,1.24,2,2,0,0,1-2.13-2.16C8.74,96.86,11.36,96.17,13.11,96.14Zm-1.48,4.06c.55,0,1.43-.49,1.43-1.1s0-1.5,0-2.32c-.66.11-2.56.4-2.56,2.11C10.55,99.85,11.07,100.2,11.63,100.2Z"/><path class="cls-2" d="M17.7,95.37c0-1.37-.11-1.43-.74-1.62v-.68a4.55,4.55,0,0,0,2.43-1.88l.37.13-.32,1.75h1.31a1.56,1.56,0,0,0,.87-.16,3.24,3.24,0,0,1,0,.43c0,.68-.32.82-.9.82l-1.3,0s-.05,1.9-.05,3.12c0,1.59.14,2.94,1.38,2.94a3.35,3.35,0,0,0,1.7-.76l.08.07a2.63,2.63,0,0,1-2.49,1.85c-1.88,0-2.42-1.32-2.42-3.12C17.64,97.18,17.7,96,17.7,95.37Z"/><path class="cls-2" d="M23.92,95.37c0-1.37-.11-1.43-.74-1.62v-.68a4.55,4.55,0,0,0,2.43-1.88l.37.13-.33,1.75H27a1.56,1.56,0,0,0,.87-.16,3.24,3.24,0,0,1,0,.43c0,.68-.33.82-.9.82l-1.31,0s0,1.9,0,3.12c0,1.59.14,2.94,1.38,2.94a3.35,3.35,0,0,0,1.7-.76l.08.07a2.63,2.63,0,0,1-2.49,1.85c-1.88,0-2.43-1.32-2.43-3.12C23.85,97.18,23.92,96,23.92,95.37Z"/><path class="cls-2" d="M33.61,92.83a3.79,3.79,0,0,1,4.08,3.82c0,2.4-1.48,4.7-4.24,4.7a3.91,3.91,0,0,1-4.09-4.07A4.18,4.18,0,0,1,33.61,92.83Zm0,7.78c1.43,0,2.12-1.84,2.12-3.67,0-1.68-.76-3.37-2.3-3.37s-2.1,1.72-2.1,3.44S32.08,100.61,33.61,100.61Z"/><path class="cls-2" d="M43.25,92.83a3.79,3.79,0,0,1,4.08,3.82c0,2.4-1.48,4.7-4.24,4.7A3.91,3.91,0,0,1,39,97.28,4.18,4.18,0,0,1,43.25,92.83Zm0,7.78c1.43,0,2.12-1.84,2.12-3.67,0-1.68-.76-3.37-2.3-3.37S41,95.29,41,97,41.72,100.61,43.25,100.61Z"/><path class="cls-2" d="M54.51,102A3.28,3.28,0,0,1,54,102c-.41,0-.69-.07-.69-.38,0-2.17.08-8.91.08-10.28a10.16,10.16,0,0,0-.08-1.53,5.09,5.09,0,0,1,.69-.06c.42,0,.55.09.55.39,0,2.18-.08,8.91-.08,10.29A10,10,0,0,0,54.51,102Z"/><path class="cls-2" d="M59.94,101a4.62,4.62,0,0,0,1-2l3.36-9.37a2.53,2.53,0,0,1,2.2,1.94c.61,2,2,6.35,2.85,8.13.45,1,.54,1.21.74,1.3v.08a5.11,5.11,0,0,1-1.18.17,1.37,1.37,0,0,1-1.47-1c-.21-.72-.52-1.77-.9-2.94-.5,0-1.07,0-1.61,0-.82,0-1.64,0-2.32.06-1,2.93-.88,3.88-2.13,3.88a1.39,1.39,0,0,1-.58-.17Zm4.69-4.48c.56,0,1.13,0,1.66,0-.58-1.7-1.21-3.52-1.72-4.84h-.08c-.69,2-1.18,3.57-1.58,4.84C63.43,96.53,64,96.54,64.63,96.54Z"/><path class="cls-2" d="M71.67,97.23c0-3.26-.34-4.11-.4-4.18a2.79,2.79,0,0,1,.78-.14c.74,0,1.3.37,1.3,1a2.5,2.5,0,0,1-.11.59l.07,0a2.86,2.86,0,0,1,2.42-1.64c.63,0,.79.27.79.63a3.45,3.45,0,0,1-.19,1.14l-.08,0A3.16,3.16,0,0,0,75,94.26c-1.25,0-1.61,1.3-1.61,3.08,0,3.17.34,3.75.37,3.76a7.1,7.1,0,0,1-1.12.17c-.59,0-1-.25-1-1.24S71.67,98.12,71.67,97.23Z"/><path class="cls-2" d="M78.14,95.37c0-1.37-.11-1.43-.74-1.62v-.68a4.55,4.55,0,0,0,2.43-1.88l.37.13-.32,1.75H81.2a1.54,1.54,0,0,0,.86-.16,3.24,3.24,0,0,1,0,.43c0,.68-.32.82-.9.82l-1.3,0s0,1.9,0,3.12c0,1.59.14,2.94,1.38,2.94a3.35,3.35,0,0,0,1.7-.76l.09.07a2.65,2.65,0,0,1-2.5,1.85c-1.88,0-2.42-1.32-2.42-3.12C78.08,97.18,78.14,96,78.14,95.37Z"/><path class="cls-2" d="M84.31,97.22c0-3.67-.37-4.17-.38-4.17a2.79,2.79,0,0,1,.78-.14c.73,0,1.37.39,1.37,1,0,1.7-.08,3.63-.08,4.82,0,.72,0,1.69.8,1.69a1.13,1.13,0,0,0,.61-.23l.07,0a1.84,1.84,0,0,1-1.79,1A1.28,1.28,0,0,1,84.25,100C84.25,99.05,84.31,98.12,84.31,97.22Zm-.26-6.75a1.09,1.09,0,1,1,2.17,0,1.09,1.09,0,0,1-2.17,0Z"/><path class="cls-2" d="M88.59,99.32h.08a3.42,3.42,0,0,0,2.5,1.16c1,0,1.42-.55,1.42-1.11,0-1.66-4.18-1.41-4.18-4.15,0-1.54,1.48-2.39,3-2.39.64,0,2.43.24,2.43.9a2.1,2.1,0,0,1-.58,1.16h-.08a2.74,2.74,0,0,0-2-1.35,1.2,1.2,0,0,0-1.25,1.22c0,1.64,4.17,1.23,4.17,4.11,0,1.62-1.57,2.48-3.06,2.48-1.07,0-2.74-.45-2.74-1.15A2.31,2.31,0,0,1,88.59,99.32Z"/><path class="cls-2" d="M96.12,95.37c0-1.37-.11-1.43-.74-1.62v-.68a4.55,4.55,0,0,0,2.43-1.88l.37.13-.32,1.75h1.31a1.56,1.56,0,0,0,.87-.16,3.24,3.24,0,0,1,0,.43c0,.68-.32.82-.9.82l-1.3,0s0,1.9,0,3.12c0,1.59.14,2.94,1.38,2.94a3.35,3.35,0,0,0,1.7-.76l.08.07a2.63,2.63,0,0,1-2.49,1.85c-1.88,0-2.42-1.32-2.42-3.12C96.06,97.18,96.12,96,96.12,95.37Z"/></g></g></svg>